<svg xmlns="http://www.w3.org/2000/svg" viewBox="0 0 200 200" width="200" height="200">
  <!-- Family tree logo with people in circles -->
  <defs>
    <style>
      .tree-color { fill: #2d5a4a; }
      .person-circle { fill: #2d5a4a; stroke: #2d5a4a; stroke-width: 4; }
      .person-bg { fill: #f5f5f5; }
      .person-icon { fill: #2d5a4a; }
    </style>
  </defs>

  <!-- Tree trunk and branches -->
  <path class="tree-color" d="M 100 180 L 100 120 M 100 120 L 60 80 M 100 120 L 140 80 M 100 120 L 100 60 M 60 80 L 40 60 M 60 80 L 80 60 M 140 80 L 120 60 M 140 80 L 160 60"
        stroke="#2d5a4a" stroke-width="3" fill="none" stroke-linecap="round"/>

  <!-- Leaves -->
  <ellipse class="tree-color" cx="30" cy="50" rx="12" ry="18" transform="rotate(-30 30 50)"/>
  <ellipse class="tree-color" cx="170" cy="50" rx="12" ry="18" transform="rotate(30 170 50)"/>
  <ellipse class="tree-color" cx="100" cy="30" rx="12" ry="20"/>

  <!-- People circles -->
  <!-- Top person -->
  <circle class="person-bg" cx="100" cy="40" r="14"/>
  <circle class="person-circle" cx="100" cy="40" r="14" fill="none"/>
  <circle class="person-icon" cx="100" cy="36" r="4"/>
  <path class="person-icon" d="M 100 42 Q 95 42 93 48 L 107 48 Q 105 42 100 42 Z"/>

  <!-- Left top -->
  <circle class="person-bg" cx="60" cy="70" r="14"/>
  <circle class="person-circle" cx="60" cy="70" r="14" fill="none"/>
  <circle class="person-icon" cx="60" cy="66" r="4"/>
  <path class="person-icon" d="M 60 72 Q 55 72 53 78 L 67 78 Q 65 72 60 72 Z"/>

  <!-- Right top -->
  <circle class="person-bg" cx="140" cy="70" r="14"/>
  <circle class="person-circle" cx="140" cy="70" r="14" fill="none"/>
  <circle class="person-icon" cx="140" cy="66" r="4"/>
  <path class="person-icon" d="M 140 72 Q 135 72 133 78 L 147 78 Q 145 72 140 72 Z"/>

  <!-- Left middle -->
  <circle class="person-bg" cx="40" cy="100" r="14"/>
  <circle class="person-circle" cx="40" cy="100" r="14" fill="none"/>
  <circle class="person-icon" cx="40" cy="96" r="4"/>
  <path class="person-icon" d="M 40 102 Q 35 102 33 108 L 47 108 Q 45 102 40 102 Z"/>

  <!-- Center middle -->
  <circle class="person-bg" cx="100" cy="110" r="16"/>
  <circle class="person-circle" cx="100" cy="110" r="16" fill="none"/>
  <circle class="person-icon" cx="100" cy="105" r="5"/>
  <path class="person-icon" d="M 100 112 Q 94 112 91 119 L 109 119 Q 106 112 100 112 Z"/>

  <!-- Right middle -->
  <circle class="person-bg" cx="160" cy="100" r="14"/>
  <circle class="person-circle" cx="160" cy="100" r="14" fill="none"/>
  <circle class="person-icon" cx="160" cy="96" r="4"/>
  <path class="person-icon" d="M 160 102 Q 155 102 153 108 L 167 108 Q 165 102 160 102 Z"/>

  <!-- Bottom left -->
  <circle class="person-bg" cx="70" cy="150" r="14"/>
  <circle class="person-circle" cx="70" cy="150" r="14" fill="none"/>
  <circle class="person-icon" cx="70" cy="146" r="4"/>
  <path class="person-icon" d="M 70 152 Q 65 152 63 158 L 77 158 Q 75 152 70 152 Z"/>

  <!-- Bottom right -->
  <circle class="person-bg" cx="130" cy="150" r="14"/>
  <circle class="person-circle" cx="130" cy="150" r="14" fill="none"/>
  <circle class="person-icon" cx="130" cy="146" r="4"/>
  <path class="person-icon" d="M 130 152 Q 125 152 123 158 L 137 158 Q 135 152 130 152 Z"/>
</svg>
